<svg id="Layer_1" data-name="Layer 1" xmlns="http://www.w3.org/2000/svg" viewBox="0 0 1340.07 273.61"><path d="M1121.64,79h-34.39v190.1h34.39ZM626.19,79H591.8v190.1h34.39ZM37,79H2.65v190.1H37ZM0,40.44H39.68V0H0ZM228.64,269.08H263V155q0-24.57-8.88-42.71t-24.94-28q-16.08-9.82-36.85-9.83T155.51,85q-16.06,10.59-25.32,31.18a92.14,92.14,0,0,0-4,10.58V79H93v190.1h34.38V165.91q0-20.79,7.56-35t20-21.54A52.53,52.53,0,0,1,182.16,102q21.53,0,34,14.17t12.47,40.63Zm159.47.38H404V242.63H391.89q-22.31,0-32.5-9.45t-10.2-31.37V103.93H403.6V79h-54V28.34h-34V79H288.34v25h27.21v95.61q0,35.53,18.33,52.72t54.23,17.2M551.37,108.84H562V76.34H555.9q-39.67,0-61.22,27.21c-8.12,10.25-13.85,22.92-17.38,37.84V79H444v190.1h34.39V182.53q0-38.16,19.84-55.93t53.1-17.76m37.79-68.4h39.68V0H589.16ZM817.79,269.08h34.39V155q0-24.57-8.88-42.71t-24.94-28q-16.07-9.82-36.85-9.83T744.67,85q-16.06,10.59-25.33,31.18a94,94,0,0,0-4,10.58V79H682.12v190.1h34.39V165.91q0-20.79,7.56-35t20-21.54A52.53,52.53,0,0,1,771.31,102q21.54,0,34,14.17t12.47,40.63ZM925.5,128.49q0-12.84,11-21t29.48-8.13q19.27,0,30.8,9.26t11.91,25.51h32.12q-.77-28-20.59-43.84T965.93,74.45q-32.86,0-52.91,15.31T893,130q0,21.53,14,34.57T947,181.4l28,4.54q19.65,3,28.16,9.63t8.5,19.09q0,15.5-11.71,24.56t-31.37,9.07q-21.54,0-34.2-10t-12.66-27.4H888.46q.75,29.48,21.73,46.1t58.39,16.63q22.67,0,39.87-7.55t26.64-21.17q9.45-13.6,9.45-31.36,0-23.44-14.55-35.72t-45.16-17.2l-27.59-4.53q-16.25-2.64-24-9.07t-7.74-18.52m159.1-88.05h39.68V0H1084.6Zm222.59,107.71h32.88q-6.43-34.4-28-54.05T1255,74.45q-27.6,0-48.56,12.47a84.69,84.69,0,0,0-32.51,35q-11.52,22.49-11.52,52.34,0,29.47,11.52,52a84.56,84.56,0,0,0,32.51,35q21,12.48,48.56,12.47,35.52,0,57.06-19.65t28-54.42h-32.88q-5.3,23.06-17.76,35.15t-34.77,12.09a52.3,52.3,0,0,1-29.85-8.88q-13.24-8.88-20.6-25.32t-7.37-38.36q0-22.29,7.37-38.74t20.6-25.32a52.37,52.37,0,0,1,29.85-8.88q22.29,0,34.77,12.1t17.76,34.77"/></svg>